<?xml version="1.0" standalone="no"?>
<!DOCTYPE svg PUBLIC "-//W3C//DTD SVG 1.1//EN" "http://www.w3.org/Graphics/SVG/1.1/DTD/svg11.dtd">
<svg xmlns="http://www.w3.org/2000/svg" width="820" height="179" viewBox="0 0 820 179"><path fill="#FFF" d="M57 0h44l-2 11-26 105-12 49v3l12-11 15-14 13-12 13-12 12-11 12-11 12-11 12-11 12-11 12-11 13-12 12-11 16-15 14-14 2-1h77l-6 7-10 9-8 7-11 10-8 7-10 9-10 9-8 7-10 9-1 3 17 29 10 17 15 26 14 24 3 6h-56l-16-2-12-4-8-5-7-7-13-23-5-8-8 6-16 15-8 7-10 9-8 7-6 5H3l6-26 17-69 5-14L3 98H2L1 83V52l10-10 8-7 15-14 10-9Z"/><path fill="#139FFF" d="M326 0h100l15 2 14 5 11 8 6 9 3 8 1 12-3 15-6 12-9 10-5 5 4 2 6 7 3 8v16l-5 16-7 12-8 9-12 9-14 7-13 4-21 3h-76l-13-23-7-12 4-18L325 1Zm43 42-3 9-3 12v5h44l9-2 7-5 3-7v-6l-4-4-8-2Zm-16 64-5 18-2 8v5h51l11-3 6-5 3-6v-10l-5-5-6-2ZM507 0h138l-2 12-7 30-85 1-7 25h85l-1 9-7 30-1 2-86 1-6 26 102 1-4 18-6 24H463l1-8 25-101 17-69ZM658 0h161l-4 18-6 24h-56l-2 11-31 125-1 1h-53l2-11 30-121 1-5h-51l4-19 5-21Z"/><path fill="#FFF" d="M104 0h65l10 2 10 4 9 7 6 7-1 3-8 7-15 14-10 9-15 14-8 6-8-13-17-29-17-29Z"/></svg>